<?xml version="1.0" encoding="UTF-8"?>
<svg xmlns="http://www.w3.org/2000/svg" viewBox="0 0 512 512">
  <defs>
    <linearGradient id="bg" x1="0%" y1="0%" x2="100%" y2="100%">
      <stop offset="0%" stop-color="#4f46e5" />
      <stop offset="50%" stop-color="#6366f1" />
      <stop offset="100%" stop-color="#0ea5e9" />
    </linearGradient>
    <linearGradient id="shear" x1="0%" y1="0%" x2="100%" y2="0%">
      <stop offset="0%" stop-color="#f8fafc" />
      <stop offset="100%" stop-color="#cbd5f5" />
    </linearGradient>
  </defs>
  <rect width="512" height="512" rx="112" fill="url(#bg)" />
  <path d="M208 128c-22.091 0-40 17.909-40 40s17.909 40 40 40 40-17.909 40-40-17.909-40-40-40zm96 0c-22.091 0-40 17.909-40 40s17.909 40 40 40 40-17.909 40-40-17.909-40-40-40z" fill="#f8fafc" opacity="0.85" />
  <path d="M157.7 222.3c-15.6 15.6-15.6 40.9 0 56.6l56.6 56.6-49.6 49.6c-7.8 7.8-7.8 20.5 0 28.3 3.9 3.9 9 5.9 14.1 5.9s10.2-2 14.1-5.9L256 355.3l62.1 62.1c3.9 3.9 9 5.9 14.1 5.9s10.2-2 14.1-5.9c7.8-7.8 7.8-20.5 0-28.3l-49.6-49.6 56.6-56.6c15.6-15.6 15.6-40.9 0-56.6-15.6-15.6-40.9-15.6-56.6 0L256 279l-40.5-40.5c-15.6-15.6-40.9-15.6-56.6 0z" fill="url(#shear)" />
  <path d="M128 384c0 17.673 14.327 32 32 32h192c17.673 0 32-14.327 32-32v-24c0-10.627-5.304-20.585-14.197-26.543l-52.216-35.933c-4.539-3.121-10.246-3.975-15.442-2.295L256 304l-45.145-9.771c-5.196-1.68-10.903-0.826-15.442 2.295l-52.216 35.933C133.304 339.415 128 349.373 128 360v24z" fill="#f8fafc" opacity="0.6" />
</svg>
